<svg width="101" height="100" viewBox="0 0 101 100" fill="none" xmlns="http://www.w3.org/2000/svg">
<path id="Star 5" d="M38.5681 5.76985C40.803 -0.882689 49.6961 -2.08479 53.617 3.73566L65.1054 20.7899C66.6624 23.1012 69.257 24.4984 72.0437 24.5261L92.6056 24.7305C99.6232 24.8003 103.515 32.8866 99.1906 38.4142L86.5211 54.6105C84.8041 56.8055 84.2771 59.7049 85.1119 62.3637L91.2714 81.9824C93.3736 88.6781 86.8856 94.8778 80.2924 92.4736L60.9737 85.4291C58.3555 84.4744 55.4352 84.8692 53.1645 86.4847L36.4094 98.4053C30.6911 102.474 22.7899 98.219 23.039 91.2055L23.7689 70.6556C23.8678 67.8705 22.5899 65.2151 20.3517 63.5547L3.83694 51.3034C-1.79938 47.1221 -0.194537 38.2929 6.55266 36.3625L26.3224 30.7064C29.0017 29.9398 31.1323 27.9039 32.0197 25.2622L38.5681 5.76985Z" fill="#EBF5FB"/>
</svg>
