<svg width="178" height="175" viewBox="0 0 178 175" fill="none" xmlns="http://www.w3.org/2000/svg">
<path id="Star 6" d="M89.0589 6.06513C96.931 -3.68584 112.567 -0.177425 115.518 12.0021L124.166 47.6888C125.338 52.5253 128.815 56.4754 133.463 58.2518L167.763 71.3596C179.47 75.8331 180.965 91.7881 170.294 98.3586L139.026 117.611C134.788 120.22 132.106 124.747 131.853 129.717L129.986 166.389C129.349 178.905 114.637 185.257 105.09 177.139L77.1179 153.35C73.3269 150.126 68.1923 148.974 63.3874 150.269L27.9333 159.826C15.8332 163.088 5.24557 151.059 10.0169 139.471L23.997 105.517C25.8917 100.915 25.4007 95.6756 22.6841 91.5061L2.63914 60.7405C-4.20199 50.2405 3.96651 36.4539 16.4619 37.4107L53.0742 40.2143C58.0362 40.5942 62.8674 38.5082 65.9933 34.6361L89.0589 6.06513Z" fill="#EBF5FB"/>
</svg>
